<svg width="150" height="150" viewBox="0 0 150 150" fill="none" xmlns="http://www.w3.org/2000/svg">
<ellipse cx="75.5734" cy="47.7937" rx="50.54" ry="47.7937" fill="#DBFFFF"/>
<g clip-path="url(#clip0_606_349)">
<path fill-rule="evenodd" clip-rule="evenodd" d="M75.5734 0C47.6501 0 25.0334 21.3877 25.0334 47.7937C25.0334 68.9424 39.5005 86.8054 59.5901 93.138C62.1171 93.5562 63.0648 92.1224 63.0648 90.8678C63.0648 89.7327 63.0016 85.969 63.0016 81.9662C50.3034 84.1767 47.0183 79.0389 46.0075 76.3505C45.439 74.9764 42.9751 70.7347 40.8272 69.5996C39.0583 68.7035 36.5313 66.493 40.764 66.4333C44.744 66.3735 47.5869 69.8983 48.5345 71.3321C53.0831 78.5609 60.3482 76.5297 63.2543 75.2751C63.6965 72.1685 65.0232 70.0775 66.4762 68.8827C55.2311 67.6879 43.4805 63.5657 43.4805 45.2846C43.4805 40.087 45.439 35.7856 48.6609 32.44C48.1555 31.2451 46.3866 26.3463 49.1663 19.7747C49.1663 19.7747 53.399 18.5201 63.0648 24.6735C67.108 23.5982 71.4039 23.0605 75.6998 23.0605C79.9957 23.0605 84.2915 23.5982 88.3347 24.6735C98.0005 18.4603 102.233 19.7747 102.233 19.7747C105.013 26.3463 103.244 31.2451 102.739 32.44C105.961 35.7856 107.919 40.0272 107.919 45.2846C107.919 63.6254 96.1053 67.6879 84.8601 68.8827C86.6922 70.3763 88.2716 73.2439 88.2716 77.7245C88.2716 84.117 88.2084 89.2548 88.2084 90.8678C88.2084 92.1224 89.156 93.616 91.683 93.138C101.716 89.9347 110.434 83.8369 116.61 75.7027C122.787 67.5686 126.11 57.8076 126.113 47.7937C126.113 21.3877 103.497 0 75.5734 0Z" fill="#5222D0"/>
</g>
<path d="M40.7034 141.784C39.7194 141.784 38.8134 141.628 37.9854 141.316C37.1694 140.992 36.4554 140.542 35.8434 139.966C35.2314 139.378 34.7574 138.688 34.4214 137.896C34.0854 137.104 33.9174 136.24 33.9174 135.304C33.9174 134.368 34.0854 133.504 34.4214 132.712C34.7574 131.92 35.2314 131.236 35.8434 130.66C36.4674 130.072 37.1934 129.622 38.0214 129.31C38.8494 128.986 39.7554 128.824 40.7394 128.824C41.8074 128.824 42.7674 128.998 43.6194 129.346C44.4834 129.694 45.2094 130.204 45.7974 130.876L44.3214 132.316C43.8294 131.824 43.2954 131.464 42.7194 131.236C42.1554 130.996 41.5314 130.876 40.8474 130.876C40.1874 130.876 39.5754 130.984 39.0114 131.2C38.4474 131.416 37.9614 131.722 37.5534 132.118C37.1454 132.514 36.8274 132.982 36.5994 133.522C36.3834 134.062 36.2754 134.656 36.2754 135.304C36.2754 135.94 36.3834 136.528 36.5994 137.068C36.8274 137.608 37.1454 138.082 37.5534 138.49C37.9614 138.886 38.4414 139.192 38.9934 139.408C39.5454 139.624 40.1574 139.732 40.8294 139.732C41.4534 139.732 42.0534 139.636 42.6294 139.444C43.2174 139.24 43.7754 138.904 44.3034 138.436L45.6354 140.182C44.9754 140.71 44.2074 141.112 43.3314 141.388C42.4674 141.652 41.5914 141.784 40.7034 141.784ZM43.4214 139.876V135.16H45.6354V140.182L43.4214 139.876ZM50.8817 141.604V129.004H53.2217V141.604H50.8817ZM61.3457 141.604V130.984H57.1697V129.004H67.8617V130.984H63.6857V141.604H61.3457ZM80.6339 129.004H82.9739V141.604H80.6339V129.004ZM74.1179 141.604H71.7779V129.004H74.1179V141.604ZM80.8139 136.204H73.9199V134.206H80.8139V136.204ZM93.9281 141.784C92.2001 141.784 90.8441 141.298 89.8601 140.326C88.8881 139.354 88.4021 137.95 88.4021 136.114V129.004H90.7421V136.024C90.7421 137.32 91.0181 138.262 91.5701 138.85C92.1341 139.438 92.9261 139.732 93.9461 139.732C94.9661 139.732 95.7521 139.438 96.3041 138.85C96.8561 138.262 97.1321 137.32 97.1321 136.024V129.004H99.4361V136.114C99.4361 137.95 98.9441 139.354 97.9601 140.326C96.9881 141.298 95.6441 141.784 93.9281 141.784ZM104.873 141.604V129.004H110.777C112.289 129.004 113.441 129.304 114.233 129.904C115.025 130.492 115.421 131.284 115.421 132.28C115.421 132.952 115.265 133.528 114.953 134.008C114.641 134.476 114.221 134.842 113.693 135.106C113.177 135.358 112.613 135.484 112.001 135.484L112.325 134.836C113.033 134.836 113.669 134.968 114.233 135.232C114.797 135.484 115.241 135.856 115.565 136.348C115.901 136.84 116.069 137.452 116.069 138.184C116.069 139.264 115.655 140.104 114.827 140.704C113.999 141.304 112.769 141.604 111.137 141.604H104.873ZM107.213 139.768H110.993C111.869 139.768 112.541 139.624 113.009 139.336C113.477 139.048 113.711 138.586 113.711 137.95C113.711 137.326 113.477 136.87 113.009 136.582C112.541 136.282 111.869 136.132 110.993 136.132H107.033V134.314H110.525C111.341 134.314 111.965 134.17 112.397 133.882C112.841 133.594 113.063 133.162 113.063 132.586C113.063 131.998 112.841 131.56 112.397 131.272C111.965 130.984 111.341 130.84 110.525 130.84H107.213V139.768Z" fill="#E6E6E6"/>
<defs>
<clipPath id="clip0_606_349">
<rect width="101.08" height="95.5875" fill="white" transform="translate(25.0334)"/>
</clipPath>
</defs>
</svg>
