<svg width="150" height="147" viewBox="0 0 150 147" fill="none" xmlns="http://www.w3.org/2000/svg">
<ellipse cx="75.5" cy="47" rx="46.5" ry="47" fill="#5222D0"/>
<g clip-path="url(#clip0_606_335)">
<path d="M98.1648 34.6368V60.0951C98.1648 61.5399 96.8899 62.641 95.217 62.641H92.2692V39.5363L74.5826 50.5088L56.896 39.5363V62.641H53.9482C52.2754 62.641 51.0005 61.5399 51.0005 60.0951V34.6368C51.0005 33.9138 51.3159 33.2773 51.845 32.8267C52.1206 32.5886 52.4488 32.4008 52.8101 32.2744C53.1714 32.148 53.5585 32.0856 53.9482 32.091H54.9313L74.5826 44.3963L94.2339 32.091H95.217C96.0542 32.091 96.7911 32.3634 97.3202 32.8267C97.8493 33.2773 98.1648 33.9138 98.1648 34.6368Z" fill="#DBFFFF"/>
</g>
<path d="M47.7072 138.784C46.7232 138.784 45.8172 138.628 44.9892 138.316C44.1732 137.992 43.4592 137.542 42.8472 136.966C42.2352 136.378 41.7612 135.688 41.4252 134.896C41.0892 134.104 40.9212 133.24 40.9212 132.304C40.9212 131.368 41.0892 130.504 41.4252 129.712C41.7612 128.92 42.2352 128.236 42.8472 127.66C43.4712 127.072 44.1972 126.622 45.0252 126.31C45.8532 125.986 46.7592 125.824 47.7432 125.824C48.8112 125.824 49.7712 125.998 50.6232 126.346C51.4872 126.694 52.2132 127.204 52.8012 127.876L51.3252 129.316C50.8332 128.824 50.2992 128.464 49.7232 128.236C49.1592 127.996 48.5352 127.876 47.8512 127.876C47.1912 127.876 46.5792 127.984 46.0152 128.2C45.4512 128.416 44.9652 128.722 44.5572 129.118C44.1492 129.514 43.8312 129.982 43.6032 130.522C43.3872 131.062 43.2792 131.656 43.2792 132.304C43.2792 132.94 43.3872 133.528 43.6032 134.068C43.8312 134.608 44.1492 135.082 44.5572 135.49C44.9652 135.886 45.4452 136.192 45.9972 136.408C46.5492 136.624 47.1612 136.732 47.8332 136.732C48.4572 136.732 49.0572 136.636 49.6332 136.444C50.2212 136.24 50.7792 135.904 51.3072 135.436L52.6392 137.182C51.9792 137.71 51.2112 138.112 50.3352 138.388C49.4712 138.652 48.5952 138.784 47.7072 138.784ZM50.4252 136.876V132.16H52.6392V137.182L50.4252 136.876ZM57.8855 138.604V126.004H59.8115L65.3195 135.202H64.3115L69.7295 126.004H71.6555L71.6735 138.604H69.4595L69.4415 129.478H69.9095L65.3015 137.164H64.2575L59.5775 129.478H60.1175V138.604H57.8855ZM75.4549 138.604L81.1249 126.004H83.4289L89.1169 138.604H86.6689L81.7909 127.246H82.7269L77.8669 138.604H75.4549ZM78.0649 135.688L78.6949 133.852H85.4989L86.1289 135.688H78.0649ZM92.8793 138.604V126.004H95.2193V138.604H92.8793ZM100.787 138.604V126.004H103.127V136.624H109.715V138.604H100.787Z" fill="#E6E6E6"/>
<defs>
<clipPath id="clip0_606_335">
<rect width="47.1643" height="40.7333" fill="white" transform="translate(51 27)"/>
</clipPath>
</defs>
</svg>
