<svg width="150" height="149" viewBox="0 0 150 149" fill="none" xmlns="http://www.w3.org/2000/svg">
<ellipse cx="74.9971" cy="47.793" rx="49" ry="47.7937" fill="#5222D0"/>
<path d="M51.929 71H61.2194V39.0875H51.929V71ZM56.5742 25C53.4774 25 51 27.3 51 30.175C51 33.05 53.4774 35.35 56.5742 35.35C59.671 35.35 62.1484 33.05 62.1484 30.175C62.1484 27.3 59.671 25 56.5742 25ZM77.0129 43.975V39.0875H67.7226V71H77.0129V54.6125C77.0129 45.4125 89.7097 44.8375 89.7097 54.6125V71H99V51.45C99 35.925 81.3484 36.5 77.0129 43.975Z" fill="#DBFFFF"/>
<path d="M23.4025 140.604V128.004H25.7425V138.624H32.3305V140.604H23.4025ZM36.3379 140.604V128.004H38.6779V140.604H36.3379ZM44.2459 140.604V128.004H46.1719L54.0739 137.706H53.1199V128.004H55.4419V140.604H53.5159L45.6139 130.902H46.5679V140.604H44.2459ZM63.0662 137.634L62.9402 134.862L69.5462 128.004H72.1742L66.6842 133.836L65.3882 135.258L63.0662 137.634ZM60.9782 140.604V128.004H63.3182V140.604H60.9782ZM69.7622 140.604L64.9382 134.862L66.4862 133.152L72.4982 140.604H69.7622ZM78.4115 133.242H84.6755V135.168H78.4115V133.242ZM78.5915 138.642H85.7015V140.604H76.2515V128.004H85.4495V129.966H78.5915V138.642ZM90.4701 140.604V128.004H95.9781C97.3461 128.004 98.5461 128.268 99.5781 128.796C100.61 129.324 101.414 130.056 101.99 130.992C102.566 131.928 102.854 133.032 102.854 134.304C102.854 135.564 102.566 136.668 101.99 137.616C101.414 138.552 100.61 139.284 99.5781 139.812C98.5461 140.34 97.3461 140.604 95.9781 140.604H90.4701ZM92.8101 138.624H95.8701C96.8181 138.624 97.6341 138.444 98.3181 138.084C99.0141 137.724 99.5481 137.22 99.9201 136.572C100.304 135.924 100.496 135.168 100.496 134.304C100.496 133.428 100.304 132.672 99.9201 132.036C99.5481 131.388 99.0141 130.884 98.3181 130.524C97.6341 130.164 96.8181 129.984 95.8701 129.984H92.8101V138.624ZM107.501 140.604V128.004H109.841V140.604H107.501ZM115.409 140.604V128.004H117.335L125.237 137.706H124.283V128.004H126.605V140.604H124.679L116.777 130.902H117.731V140.604H115.409Z" fill="#E6E6E6"/>
</svg>
